<?xml version="1.0" standalone="no"?>
<!DOCTYPE svg PUBLIC "-//W3C//DTD SVG 1.1//EN" "http://www.w3.org/Graphics/SVG/1.1/DTD/svg11.dtd" >
<svg xmlns="http://www.w3.org/2000/svg">
<metadata>
Created by FontForge 20120731 at Thu Jun 16 22:25:49 2016
 By admin
</metadata>
<defs>
<font id="iconfont" horiz-adv-x="1024" >
  <font-face 
    font-family="iconfont"
    font-weight="500"
    font-stretch="normal"
    units-per-em="1024"
    panose-1="2 0 6 3 0 0 0 0 0 0"
    ascent="896"
    descent="-128"
    x-height="792"
    bbox="0 -222 1197 896"
    underline-thickness="50"
    underline-position="-100"
    unicode-range="U+0078-E63D"
  />
<missing-glyph horiz-adv-x="374" 
d="M34 0v682h272v-682h-272zM68 34h204v614h-204v-614z" />
    <glyph glyph-name=".notdef" horiz-adv-x="374" 
d="M34 0v682h272v-682h-272zM68 34h204v614h-204v-614z" />
    <glyph glyph-name=".null" horiz-adv-x="0" 
 />
    <glyph glyph-name="nonmarkingreturn" horiz-adv-x="341" 
 />
    <glyph glyph-name="x" unicode="x" horiz-adv-x="1001" 
d="M281 543q-27 -1 -53 -1h-83q-18 0 -36.5 -6t-32.5 -18.5t-23 -32t-9 -45.5v-76h912v41q0 16 -0.5 30t-0.5 18q0 13 -5 29t-17 29.5t-31.5 22.5t-49.5 9h-133v-97h-438v97zM955 310v-52q0 -23 0.5 -52t0.5 -58t-10.5 -47.5t-26 -30t-33 -16t-31.5 -4.5q-14 -1 -29.5 -0.5
t-29.5 0.5h-32l-45 128h-439l-44 -128h-29h-34q-20 0 -45 1q-25 0 -41 9.5t-25.5 23t-13.5 29.5t-4 30v167h911zM163 247q-12 0 -21 -8.5t-9 -21.5t9 -21.5t21 -8.5q13 0 22 8.5t9 21.5t-9 21.5t-22 8.5zM316 123q-8 -26 -14 -48q-5 -19 -10.5 -37t-7.5 -25t-3 -15t1 -14.5
t9.5 -10.5t21.5 -4h37h67h81h80h64h36q23 0 34 12t2 38q-5 13 -9.5 30.5t-9.5 34.5q-5 19 -11 39h-368zM336 498v228q0 11 2.5 23t10 21.5t20.5 15.5t34 6h188q31 0 51.5 -14.5t20.5 -52.5v-227h-327z" />
    <glyph glyph-name="uniE600" unicode="&#xe600;" 
d="M2 302q0 -104 40.5 -198.5t109 -162.5t162.5 -108.5t198 -40.5t198.5 40.5t162.5 108.5t108.5 162.5t40.5 198.5t-40.5 198.5t-108.5 162.5t-162.5 108.5t-198.5 40.5t-198 -40.5t-162.5 -108.5t-109 -162.5t-40.5 -198.5zM956 302q0 -90 -35 -172.5t-94.5 -142
t-141.5 -94.5t-172.5 -35t-172.5 35t-141.5 94.5t-95 142t-35.5 172.5t35.5 172.5t95 141.5t141.5 94.5t172.5 35.5t172.5 -35.5t141.5 -94.5t94.5 -141.5t35 -172.5zM514 461l-271 -272l40 -41l231 231l231 -231l41 41z" />
    <glyph glyph-name="uniE601" unicode="&#xe601;" 
d="M864 522q-20 -45 -53 -102h44q23 -55 28 -114h-114q-1 24 -3 43l-42 -60q-5 6 -12 17h-171v114h96q-18 31 -32 57h-64v168q7 -2 14 -6q3 34 16 63q-29 4 -59 4q-117 0 -215.5 -57.5t-156 -156t-57.5 -215t57.5 -215.5t156.5 -156t215 -57t215 57t156.5 156t57.5 215
q0 135 -77 245zM249 540q45 45 103 73q-42 -56 -68 -136h-85q22 35 50 63zM169 420h100q-11 -55 -14 -114h-114q5 59 28 114zM141 249h114q3 -59 14 -115h-100q-23 55 -28 115zM249 14q-29 29 -50 63h85q26 -79 68 -135q-58 27 -103 72zM483 -90q-20 6 -38 19q-37 26 -66 74
q-20 33 -34 74h138v-167zM483 134h-155q-13 55 -16 115h171v-115zM483 306h-171q3 60 16 114h155v-114zM483 477h-138q14 41 34 74q29 49 66 75q19 13 38 19v-168zM541 249h170q-2 -59 -15 -115h-155v115zM579 -71q-18 -13 -38 -19v167h138q-14 -40 -34 -74q-30 -49 -66 -74
zM775 14q-45 -45 -103 -72q42 55 68 135h85q-21 -33 -50 -63zM855 134h-100q11 56 14 115h114q-5 -60 -28 -115zM725 752q-59 0 -96 -35t-37 -94q0 -38 33 -104t67 -114l33 -47q5 7 14 20t32 48.5t40.5 67.5t32 68.5t14.5 60.5q0 58 -36.5 93.5t-96.5 35.5zM777 638
q0 -21 -15 -36t-36.5 -15t-36 15t-14.5 36q0 20 12.5 34.5t31.5 17.5q4 1 9 1q20 0 34.5 -14.5t14.5 -34.5v-1v-3z" />
    <glyph glyph-name="uniE602" unicode="&#xe602;" 
d="M674 737h4q78 21 147 0q24 -14 42.5 -33t26 -30.5t6.5 -12.5q24 -19 29 -81t-4 -145h-3t-7 -2t-7.5 -6.5t-6 -15t-1.5 -26.5q0 -1 12 0h14h-1l-1 -31q-1 -32 -1 -69.5t2 -50.5q15 -99 -51.5 -190t-199.5 -162q-24 -8 -46.5 -14t-40.5 -10t-41 -4t-36 -1t-37 3.5t-33.5 6
t-36 9.5t-33 10t-37 12.5t-36.5 13.5q-67 42 -115.5 110t-69.5 147.5t-17.5 160.5t42.5 156.5t110 128.5q102 85 323 75q4 0 3 1q6 5 6 4t-7 -12q-19 -30 -24 -43q-15 -30 -29 -49t-24.5 -27.5t-23 -10t-20.5 1t-22 8.5q-11 11 -20 22t-12 14.5t-5.5 7t-4.5 0t-4.5 -7.5
t-11 -14.5t-19.5 -21.5q-11 -2 -20 -2t-14 -0.5t-9 0t-7.5 -1.5t-6 -2.5t-7.5 -5t-8.5 -7.5t-13.5 -12.5t-19 -16.5q132 33 163 21q14 -5 -13 -21q-21 -26 -75 -88.5t-75 -87.5q-18 -9 -51 -0.5t-50 0.5q39 -43 73 -91q13 -18 3 -10q-54 43 -65 12q-15 -37 41 -132
q38 -64 99 -131q-13 37 -30.5 70t-27.5 50t-15.5 48.5t-1.5 76.5q6 13 24 23t26 8q26 -15 60 -40t59.5 -39t56.5 -21q-10 -19 -13.5 -46.5t-4 -49t-12 -49t-36.5 -49.5q-20 -21 3 -30q13 -6 38 -2q4 0 26 -9.5t64.5 -13t149.5 12.5q4 8 5 29t6 31q-2 72 -4.5 114.5t-6 65
t-10 29.5t-14 5.5t-19 -4t-25 -2t-33 14t-40.5 42.5q-26 30 16 101q22 37 33 38q2 0 2 -2q14 -11 65 -65t102 -92q56 37 88 66t47 66q-16 -9 -35.5 -29.5t-33 -38t-29.5 -28.5t-28 -5q-44 23 -79 57t-57 67.5t-39 77t-25 75.5t-16 74q13 12 36 43t47 52t58 32zM649 536
q4 -26 16 -45.5t25 -29.5t27.5 -16.5t22 -8t9.5 -1.5q17 4 30 9.5t23 14t16.5 13.5t12 16.5t7.5 15.5t6.5 17t5.5 15q-1 58 -26 87t-75 38q-49 -8 -77.5 -45.5t-22.5 -79.5zM875 284q-8 -26 -27 -65t-36 -82t-26 -93q-2 -40 13 -22q26 33 61 149q34 110 15 113z" />
    <glyph glyph-name="uniE603" unicode="&#xe603;" 
d="M804 208q-20 0 -34.5 -7.5t-16.5 -17.5h102q-2 10 -16.5 17.5t-34.5 7.5zM517 417q11 0 18.5 15t7.5 36t-7.5 36t-18.5 15t-18.5 -15t-7.5 -36t7.5 -36t18.5 -15zM230 208q-20 0 -34.5 -7.5t-15.5 -17.5h101q-2 10 -16.5 17.5t-34.5 7.5zM399.5 385.5q9.5 5.5 8.5 22.5
t-11.5 35t-24.5 27t-23.5 3.5t-9 -22t11 -35t25 -27.5t24 -3.5zM312.5 299.5q5.5 9.5 -3.5 23.5t-27 24.5t-35 11t-22.5 -8.5t3.5 -23.5t27.5 -25t35 -11t22 9zM635.5 385.5q9.5 -5.5 23.5 3.5t24.5 27.5t11 35t-9 22t-23.5 -3.5t-24.5 -27t-11 -35t9 -22.5zM809.5 350.5
q-5.5 9.5 -22 8.5t-35 -11.5t-27.5 -24.5t-3.5 -23.5t22.5 -9t35 11t27 25t3.5 24zM510.5 390q-85.5 0 -146.5 -60.5t-61 -146.5h414q0 86 -60.5 146.5t-146 60.5z" />
    <glyph glyph-name="uniE604" unicode="&#xe604;" 
d="M875 -11q-30 77 -84 137q-55 61 -127 94q-13 6 -27 11q31 18 56 43q77 77 77 185t-76.5 184.5t-184.5 76.5t-184.5 -76.5t-76.5 -184.5t76 -185q26 -25 57 -43q-14 -5 -28 -11q-71 -33 -126 -94q-59 -64 -84 -137q-5 -13 -8 -25.5t-4 -26t-1.5 -21.5t-1 -20t-0.5 -14h62
q-1 54 23 109t65.5 100t102.5 73.5t128 28.5q66 0 128 -29.5t104 -74.5t67.5 -100t25.5 -107h62q0 3 -1 7q0 21 -1 31t-5.5 27.5t-13.5 41.5zM309 458.5q0 82.5 58.5 141t141 58.5t141 -58.5t58.5 -141t-58.5 -141t-141 -58.5t-141 58.5t-58.5 141z" />
    <glyph glyph-name="uniE605" unicode="&#xe605;" horiz-adv-x="1025" 
d="M535 458q9 -9 9.5 -22t-9.5 -23l-272 -272q-9 -9 -22 -9t-23 10q-9 9 -9 22t9 23l272 272q9 9 22.5 9t22.5 -10zM806 142q-10 -10 -23 -10t-22 9l-272 272q-10 10 -9.5 23t9.5 22q9 10 22.5 10t22.5 -9l272 -272q9 -10 9 -23t-9 -22zM512 812q-104 0 -199 -40.5
t-163.5 -109t-109 -163.5t-40.5 -199t40.5 -199t109 -163.5t163.5 -109t199 -40.5t199 40.5t163.5 109t109 163.5t40.5 199t-40.5 199t-109 163.5t-163.5 109t-199 40.5zM512 -164q-94 0 -180 36.5t-148 99t-99 148.5t-37 180t37 180t99 148.5t148 99t180 36.5t180 -36.5
t148.5 -99t99 -148.5t36.5 -180t-36.5 -180t-99 -148.5t-148.5 -99t-180 -36.5z" />
    <glyph glyph-name="uniE606" unicode="&#xe606;" 
d="M512 748q-91 0 -174 -35.5t-143 -95.5t-95.5 -143t-35.5 -174t35.5 -174t95.5 -143t143 -95.5t174 -35.5t174 35.5t143 95.5t95.5 143t35.5 174t-35.5 174t-95.5 143t-143 95.5t-174 35.5zM888 411l-2 -1q-1 -1 -2 -1q-32 -24 -47 -46q-16 -25 -17 -75q0 -22 -2 -28.5
t-8 -8.5q-33 -13 -52 6q-3 2 3 21q13 42 2 67q-12 29 -56 48q-22 9 -24 17q-7 23 6.5 43t52.5 50q18 15 36 21t48 11q42 -57 62 -124zM280 19q-16 0 -45 3q-52 52 -82 119.5t-33 143.5q49 -6 71 -12q1 0 5 -3q14 -11 28 -13h10q22 0 58.5 8.5t52.5 23.5q11 11 13 28
q1 -1 3 -5q13 -26 32 -33q22 -9 52 5q7 4 8 4q7 -3 18 -17l3 -3q2 -2 3 -13q6 -37 31 -49q14 -6 51 -2q18 2 20 2q13 -5 16 -18q1 -3 1 -6q-6 -1 -24 -3q-35 -3 -48 -12q-21 -14 -33.5 -27t-20.5 -34q-6 -16 -4 -40q1 -10 -1 -14q-6 -15 -12.5 -22t-18.5 -10q-5 -2 -17 1
q-16 4 -27 5h-5q-26 1 -42 0q-9 -1 -21 -3q-9 -2 -14 -2q-14 -2 -28 -2zM512 -92q-109 0 -203 57h3h2q6 1 17 3q10 1 16 2q13 1 36 0h5q5 0 15 -3q28 -7 47 -1q46 14 67 65q7 16 4 40q0 10 1 14q7 18 32 35q4 1 24 3q16 2 25 3.5t20.5 7t17.5 14.5q17 25 8 55q-11 39 -48 54
q-14 6 -48 2q-14 -1 -19 -1q-1 2 -1 6q-4 25 -15 39l-3 3q-21 27 -44 35q-22 7 -50 -6q-5 -3 -7 -3q-1 1 -3 5q-12 24 -30 32l-3 1q-17 8 -29 8q-10 0 -19 -3q-25 -10 -27 -45v-2q-10 -5 -33 -10t-37 -5q-1 0 -4 2q-12 9 -23 12q-30 8 -84 14q15 149 127 250t263 101
q77 0 147 -28.5t123 -79.5q-42 -10 -75 -37q-12 -9 -18.5 -14.5t-18 -16.5t-18 -19.5t-14.5 -21.5t-11 -24.5t-3 -26.5t5 -30t15.5 -26.5t18.5 -16t22 -10.5q23 -10 27 -19q2 -6 -4 -27q-5 -15 -6.5 -24t1.5 -24.5t14 -28.5q29 -28 68 -28q22 0 45 8q16 6 26 16t14 24.5
t5 23.5t1 24q1 35 8 46q6 10 17 19q3 -28 3 -51q0 -107 -52.5 -197t-142.5 -142.5t-197 -52.5zM521 633q-5 0 -10 -1q-17 -4 -28.5 -13.5t-18 -24.5t-8.5 -24.5t-5 -27.5q-3 -19 -5 -28q-1 -5 -7 -19q-23 -54 8 -80q16 -13 37 -13t56 19q16 9 26.5 20t16.5 26.5t8.5 26
t5.5 28.5l1 7q6 35 -28 75q-24 29 -49 29zM542 532q-5 -29 -10.5 -42t-19.5 -20q-21 -12 -28 -12q2 4 7 15q7 18 10 28q3 12 6 34q5 36 13 41q7 -6 15 -18.5t8 -18.5z" />
    <glyph glyph-name="uniE607" unicode="&#xe607;" 
d="M715 765h-556q-33 0 -56 -23.5t-23 -55.5v-738q0 -32 23 -55.5t56 -23.5h737q33 0 56 23.5t23 55.5v557zM930 486v-2h-177q-23 0 -39.5 16.5t-16.5 40.5v178zM896 -86h-737q-14 0 -24 10t-10 24v738q0 14 10 24t24 10h492h1v-179q0 -42 29.5 -72t71.5 -30h177v-491
q0 -14 -10 -24t-24 -10zM692 406h-1q-19 0 -35.5 -10t-28 -22.5t-24.5 -38.5t-20 -43t-20 -52q-3 -6 -4 -9q-35 -91 -48 -102q-8 3 -31 41q-13 20 -21 31t-23 27.5t-33 24t-39 7.5q-67 0 -125 -80v411q0 4 3 7.5t7 3.5h331q9 0 15 6t6 15t-6 15t-15 6h-331
q-22 0 -37.5 -15.5t-15.5 -37.5v-548q0 -22 15.5 -37.5t37.5 -15.5h548q22 0 37.5 15.5t15.5 37.5v150v0v1q1 37 -21 86t-60 87t-77 39zM797 32h-548q-4 0 -7 3.5t-3 7.5v55q2 3 3 6q10 21 25.5 44.5t43 46.5t53.5 23q13 0 24 -5.5t21.5 -17.5t17 -21t16.5 -26
q10 -16 15.5 -24t14.5 -18.5t19 -15t21 -4.5q24 0 41 29t45 101q29 77 46 107q9 17 21 27t17 12t8 2q34 -1 75.5 -57.5t41.5 -122.5v-141q0 -4 -3.5 -7.5t-7.5 -3.5zM288 464.5q0 -38.5 27.5 -66t66 -27.5t66 27.5t27.5 66t-27.5 66t-66 27.5t-66 -27.5t-27.5 -66zM432 464
q0 -21 -15 -35.5t-36 -14.5t-35.5 14.5t-14.5 35.5t14.5 36t35.5 15t36 -15t15 -36z" />
    <glyph glyph-name="uniE608" unicode="&#xe608;" 
d="M512 232q-93 0 -159 66t-66 159.5t66 159.5t159 66t159 -66t66 -159.5t-66 -159.5t-159 -66zM512 636q-74 0 -126 -52.5t-52 -126t52 -126t126 -52.5t126 52.5t52 126t-52 126t-126 52.5zM856 -65h-47q0 122 -86.5 209t-209 87t-209 -87t-86.5 -209h-47q0 70 26 133
q26 62 73.5 109.5t109.5 73.5q63 27 133 27t133 -27q62 -26 109.5 -73.5t73.5 -109.5q27 -63 27 -133z" />
    <glyph glyph-name="uniE609" unicode="&#xe609;" 
d="M690 212l-116 -114q-7 -7 -7 -17t7 -16.5t16.5 -6.5t16.5 6q0 1 1 2l70 70l33 33l23 -21q15 -7 27 5q7 7 7 16.5t-7 16.5v0l-17 16q-3 4 -5 6q-10 10 -24 11t-25 -7zM783 97l11 -10v0q7 -7 16.5 -7t16.5 7t7 16.5t-7 16.5v0l-11 10v1q-7 7 -16.5 7t-16.5 -7t-7 -16.5
t7 -16.5v-1zM856 763h-686q-52 0 -88.5 -36.5t-36.5 -88.5v-686q0 -52 36.5 -88.5t88.5 -36.5h686q52 0 88.5 36.5t36.5 88.5v686q0 52 -36.5 88.5t-88.5 36.5zM919 -48q0 -26 -18.5 -44t-44.5 -18h-686q-26 0 -44.5 18t-18.5 44v74l166 159q8 6 15 0l128 -104
q24 -18 32 -18q18 0 33 16l231 231h2h2h1l202 -216v-142zM919 186l-167 178q-10 24 -36 24q-22 0 -33 -20l-228 -228q-5 -3 -7 -3t-7 3l-129 106q-12 16 -32 16q-9 0 -18 -4l-6 -4q-2 -2 -5 -6l-144 -137v527q0 26 18.5 44.5t44.5 18.5h686q26 0 44.5 -18.5t18.5 -44.5v-452
zM326 607q-39 0 -66.5 -27.5t-27.5 -66t27.5 -66t66.5 -27.5t66 27.5t27 66t-27 66t-66 27.5zM326 482q-13 0 -22 9.5t-9 22t9 22t22 9.5t22 -9.5t9 -22t-9 -22t-22 -9.5zM731 130z" />
    <glyph glyph-name="uniE60A" unicode="&#xe60a;" horiz-adv-x="1025" 
d="M929 573h-147l-77 122h-384l-77 -122h-147q-30 0 -63 -25t-33 -65v-488q0 -36 28.5 -63.5t60.5 -27.5h841q33 0 63.5 28t30.5 62v488q0 28 -26.5 59.5t-69.5 31.5zM961 -6q0 -8 -11 -18.5t-19 -10.5h-841q-6 0 -15.5 9.5t-9.5 20.5v488q0 12 12.5 20.5t19.5 8.5h147h36
l19 30l58 92h314l57 -92l17 -30h37h147q10 0 18 -7.5t10.5 -13.5t3.5 -9v-488zM513 482q-93 0 -158.5 -62.5t-65.5 -150.5t65.5 -150.5t158.5 -62.5t158.5 62.5t65.5 150.5t-65.5 150.5t-158.5 62.5zM513 117q-66 0 -113 44.5t-47 107.5t47 107.5t113 44.5t113 -44.5
t47 -107.5t-47 -107.5t-113 -44.5z" />
    <glyph glyph-name="uniE60B" unicode="&#xe60b;" 
d="M96 442q13 0 21.5 9t8.5 22v148q0 26 19 44t45 18h148q13 0 22 9.5t9 22.5t-9 22t-22 9h-148q-52 0 -88.5 -36.5t-36.5 -88.5v-148q0 -13 9 -22t22 -9zM834 746h-148q-13 0 -22 -9t-9 -22t9 -22.5t22 -9.5h148q26 0 43.5 -18t17.5 -44v-148q0 -13 9 -22t22 -9t22 9t9 22
v148q0 52 -36 88.5t-87 36.5zM926 156q-13 0 -22 -9t-9 -22v-148q0 -26 -17.5 -43.5t-43.5 -17.5h-148q-13 0 -22 -9t-9 -22t9 -22t22 -9h148q52 0 87.5 35.5t35.5 87.5v148q0 13 -9 22t-22 9zM338 -84h-148q-26 0 -45 17.5t-19 43.5v148q0 13 -8.5 22t-21.5 9t-22 -9
t-9 -22v-148q0 -52 36.5 -87.5t88.5 -35.5h148q13 0 22 9t9 22t-9 22t-22 9zM927 332h-830q-13 0 -22 -8.5t-9 -21.5t9 -22t22 -9h830q13 0 22 9t9 22t-9 21.5t-22 8.5z" />
    <glyph glyph-name="uniE60C" unicode="&#xe60c;" 
d="M827 458q-27 26 -81.5 79t-81.5 80q-5 5 -7 5t-8 -6q-329 -328 -370 -369q-9 -9 -12 -20q-13 -48 -58 -212q-4 -15 -5 -19q0 -6 6 -3h2q38 11 114.5 32.5t115.5 31.5q7 2 14 9q124 123 371 370q8 8 8 11t-8 11zM736 458l-140 -140q-171 -172 -206 -206q-7 -8 -16 -10
l-75 -21q-8 -2 -7 3q16 60 18 67q4 20 22 38l306 306q5 5 15.5 15t15.5 15t11 0q11 -10 30 -29t27 -26q6 -6 -1 -12zM1023 697q-4 48 -40 81.5t-87 33.5t-88 -37l-46 -47q-31 -30 -46 -44q-6 -6 0 -13q22 -20 59 -55q59 -58 111 -109q6 -6 12 0l45 45l45 45q34 35 36 89
q-1 9 -1 11zM939 638l-22 -22l-23 -23q-2 -3 -5 0q-25 24 -56 55q-1 0 -12 11t-17 16q-3 3 0 7q7 7 22.5 22t22.5 23q19 18 44.5 18t43.5 -16.5t20 -40.5v-3v-2q-1 -27 -18 -45zM1021 445q-1 -1 -6 -5l-33 -32l-32 -33q1 -256 0 -349q0 -76 -55 -125q-47 -41 -106 -41h-557
q-57 1 -102 39q-58 50 -58 127v546q0 76 56 126q42 37 98 40q9 0 144 1h216q33 32 65 64q5 5 4 7q0 1 -7 1h-301q-155 -1 -168 -1q-65 -3 -114 -47q-65 -58 -65 -147v-634q0 -91 67 -149q53 -45 119 -45h649q69 0 122 48q65 57 65 145q1 101 0 456q0 6 -1 8z" />
    <glyph glyph-name="uniE60D" unicode="&#xe60d;" 
d="M961 -29v657q0 33 -11.5 57.5t-25 36t-34 18t-29.5 7t-19 0.5h-657q-10 0 -19 -0.5t-29.5 -7t-34.5 -18t-25 -36t-11 -57.5v-657q0 -24 6.5 -44t17 -32t23 -21t25.5 -13t23.5 -6.5t17.5 -2.5h6h657q46 0 76 24q2 2 3 2q6 6 11 12l3 3q26 35 26 78zM188 682h646
q10 0 16.5 -1t18 -6t18 -18t6.5 -33v-646q-1 -34 -26 -50q-159 166 -192 199q-28 28 -59 26q-13 0 -26 -5t-18 -9t-7 -7l-62 -54q-12 -12 -28 4q-40 40 -120 111q-25 25 -58 26q-35 2 -66 -29q-28 -28 -102 -95v529q0 58 59 58zM129 -20v28q109 99 148 137q11 11 18 10
q7 0 14 -6v0l3 -3q73 -64 118 -109q25 -26 62 -28q15 0 28.5 6t20 11t6.5 6l62 54q9 8 21 -4q27 -28 156 -163h-594q-18 0 -31 7t-19 14.5t-9 18.5t-3.5 14.5t-0.5 6.5zM662.5 262q62.5 0 107 44.5t44.5 107t-44.5 107t-107 44.5t-107 -44.5t-44.5 -107t44.5 -107t107 -44.5
zM662.5 501q36.5 0 62 -25.5t25.5 -62t-25.5 -62t-62 -25.5t-62 25.5t-25.5 62t25.5 62t62 25.5z" />
    <glyph glyph-name="uniE60E" unicode="&#xe60e;" 
d="M928 352h-832q-13 0 -22.5 9.5t-9.5 22.5t9.5 22.5t22.5 9.5h832q13 0 22.5 -9.5t9.5 -22.5t-9.5 -22.5t-22.5 -9.5zM832 -32h-192q-13 0 -22.5 9.5t-9.5 22.5t9.5 22.5t22.5 9.5h192q13 0 22.5 9.5t9.5 22.5v160q0 13 9.5 22.5t22.5 9.5t22.5 -9.5t9.5 -22.5v-160
q0 -40 -28 -68t-68 -28zM352 -32h-160q-40 0 -68 28t-28 68v160q0 13 9.5 22.5t22.5 9.5t22.5 -9.5t9.5 -22.5v-160q0 -13 9.5 -22.5t22.5 -9.5h160q13 0 22.5 -9.5t9.5 -22.5t-9.5 -22.5t-22.5 -9.5zM128 512q-13 0 -22.5 9.5t-9.5 22.5v160q0 40 28 68t68 28h160
q13 0 22.5 -9.5t9.5 -22.5t-9.5 -22.5t-22.5 -9.5h-160q-13 0 -22.5 -9.5t-9.5 -22.5v-160q0 -13 -9.5 -22.5t-22.5 -9.5zM896 512q-13 0 -22.5 9.5t-9.5 22.5v160q0 13 -9.5 22.5t-22.5 9.5h-192q-13 0 -22.5 9.5t-9.5 22.5t9.5 22.5t22.5 9.5h192q40 0 68 -28t28 -68v-160
q0 -13 -9.5 -22.5t-22.5 -9.5z" />
    <glyph glyph-name="uniE60F" unicode="&#xe60f;" 
d="M512 717q-113 0 -209.5 -55.5t-152 -152t-55.5 -209.5t55.5 -209.5t152 -152t209.5 -55.5t209.5 55.5t152 152t55.5 209.5t-55.5 209.5t-152 152t-209.5 55.5zM685 273l1 1q9 -1 -4 -17q-16 -20 -67 -52q-7 -4 -8 -27.5t0 -48.5t-7.5 -46.5t-28.5 -22.5q-14 9 -38 54.5
t-25 63.5q0 7 12 30q18 36 18 58q0 102 -146 87q-19 -6 -32 5t-18 31.5t-7 33t-2 18.5q0 2 7.5 7.5t35 12.5t68.5 8q3 0 9.5 -9t18 -17.5t42 -11.5t81.5 8q26 6 29 25q1 4 1.5 10.5t1.5 9.5q8 -11 20 -14q3 -4 12 -5t16.5 -7t12.5 -24q0 -1 1 -3q2 -8 7 -12.5t26 -13.5
q-1 -1 -9 -3.5t-10 -4.5q-29 -30 -39 -44t-10 -28q0 -25 31 -52zM631 529q2 29 -4 48t-25 32q-22 16 -50 3q-39 -20 -54 -6q-15 15 -18.5 24t3 11.5t18 2.5t27.5 -1q6 -1 8.5 -1t8 -0.5t8.5 -0.5h8h9q3 0 7 0.5t7.5 1t7.5 0.5q4 1 8 4q65 -17 119 -55q-29 4 -46 -2.5
t-22 -15t-10.5 -24t-9.5 -21.5zM512 -58q-97 0 -179.5 48t-130.5 130.5t-48 179.5q0 123 74.5 219t190.5 127v-2v-3q-3 -28 12 -50.5t38 -35.5q44 -24 100 -1q2 -8 2.5 -9t1 -6t0 -7t-1.5 -13t-2 -24q-8 -1 -18.5 -5t-16.5 -5.5t-14.5 -1t-17 8t-17.5 21.5q-10 15 -40 13
q-50 -2 -85.5 -10.5t-52 -17.5t-24.5 -22t-9 -19t0 -14v-2q0 -22 5.5 -45t18 -47t37 -39.5t57.5 -15.5l18 5q62 10 68 -27q1 -3 1 -6q-1 -10 -12 -31q-17 -36 -17 -58q0 -17 16.5 -58t45.5 -79.5t55 -38.5q16 1 28.5 3.5t21.5 8t15.5 9.5t11 14.5t7 16.5t4.5 21.5t3 23.5
t2.5 28.5t2.5 31.5q26 12 71 57q24 25 23 49q-1 17 -10.5 30t-16.5 18.5t-4.5 16t20.5 27.5q2 2 7.5 6.5t8 7t6.5 7t6 7t4.5 7t3 8.5t0.5 9t-1 11q0 3 -1 8t-1.5 6.5t-2 5t-4 5t-7 4t-11 5t-15.5 6.5q-5 16 -14.5 23.5t-20.5 12t-16 10.5q1 3 0 9t0 9.5t4 7t13 3.5t26 -4
q25 -1 48 9q91 -102 91 -239q0 -97 -48 -179.5t-130.5 -130.5t-179.5 -48zM512 -58z" />
    <glyph glyph-name="uniE610" unicode="&#xe610;" 
d="M504 -106l-18 17q-98 89 -196 204q-199 235 -199 375q0 83 32 158q32 73 89 129t131 87q77 32 161 32t161 -32q74 -31 131.5 -87t88.5 -129q33 -75 33 -158q0 -140 -200 -375q-98 -115 -195 -204zM504.5 841q-148.5 0 -253.5 -103q-51 -50 -78 -113.5t-27 -134.5
q0 -120 186 -339q79 -93 172 -182q94 89 172 182q186 219 186 339q0 71 -27 134.5t-77 113.5q-105 103 -253.5 103zM504 321q-71 0 -121.5 49.5t-50.5 119.5q0 71 50 120q51 50 122 50t121.5 -50t50.5 -120t-50.5 -119.5t-121.5 -49.5zM504 605q-49 0 -83 -34
q-34 -33 -34 -80.5t34.5 -81t83 -33.5t82.5 33.5t34 81t-34 81t-83 33.5z" />
    <glyph glyph-name="uniE611" unicode="&#xe611;" 
d="M992 384q0 98 -38 186.5t-102.5 153t-153 102.5t-186.5 38t-186.5 -38t-153 -102.5t-102.5 -153t-38 -186.5t38 -186.5t102.5 -153t153 -102.5t186.5 -38t186.5 38t153 102.5t102.5 153t38 186.5zM96 384q0 172 122 294t294 122t294 -122t122 -294t-122 -294t-294 -122
t-294 122t-122 294zM512 468l170 -170q9 -10 22.5 -10t23 9.5t9.5 23t-10 22.5l-192 193q-10 9 -23 9t-23 -9l-191 -192q-10 -9 -10 -22.5t9.5 -22.5t23 -9t22.5 9z" />
    <glyph glyph-name="uniE612" unicode="&#xe612;" 
d="M931 485q9 -9 9 -22.5t-9 -22.5l-91 -91q-9 -9 -22 -9t-23 9q-9 10 -9 23t9 23l91 90q9 9 22.5 9t22.5 -9zM511 641q14 0 23 -9.5t9 -22.5v-128q0 -13 -9 -22.5t-23 -9.5q-13 0 -22.5 9.5t-9.5 22.5v128q0 13 9.5 22.5t22.5 9.5zM289 183q32 60 91.5 96.5t130.5 36.5
t130.5 -36.5t91.5 -96.5h80q-36 91 -118.5 148t-184 57t-183.5 -57t-118 -148h80zM32 129h959q13 0 22.5 -9t9.5 -23q0 -13 -9.5 -22t-22.5 -9h-959q-13 0 -22.5 9t-9.5 22q0 14 9.5 23t22.5 9zM92 485q-9 -9 -9 -22.5t9 -22.5l90 -91q10 -9 23 -9t23 9q9 10 9 23t-9 23
l-91 90q-9 9 -22.5 9t-22.5 -9z" />
    <glyph glyph-name="uniE613" unicode="&#xe613;" 
d="M925 30q-34 88 -96 156q-62 69 -144 107q-15 7 -31 13q35 20 64 49q87 87 87 210t-87 209.5t-210 86.5t-209.5 -86.5t-86.5 -209.5t86 -210q29 -29 64 -49q-15 -6 -31 -13q-81 -38 -143 -107q-67 -73 -96 -156q-5 -14 -8.5 -29t-5 -29.5t-2 -24t-1 -23.5t-0.5 -16h70
q-1 61 26.5 124.5t75 114.5t116.5 83t145 32t146.5 -33t118.5 -85t76.5 -114.5t29.5 -121.5h70q-1 3 -1 9q0 23 -1 34.5t-6 31t-16 47.5zM281 564.5q0 93.5 67 160.5t160.5 67t160 -67t66.5 -160.5t-66.5 -160t-160 -66.5t-160.5 66.5t-67 160z" />
    <glyph glyph-name="uniE614" unicode="&#xe614;" 
d="M565 290q-11 10 -25 24t-20 19t-19 9t-34 4q-49 0 -69 -19t-10 -75q5 -27 15.5 -42t19 -18.5t14.5 -14t5 -30.5q-3 -12 -1 -26t2 -20t3.5 -15.5t4.5 -11.5t5 -8.5t5 -7.5q4 -8 9.5 -15t13.5 -12.5t15 1.5t11 28q13 72 53 123q15 19 22 33.5t4 35t-24 38.5zM407 431
q2 20 28.5 41.5t57.5 35.5q7 3 19 7.5t18 7t13 7t9 10t1 13.5q-4 22 -16.5 33t-47.5 11q-17 0 -27.5 -10t-12.5 -19.5t-10.5 -11.5t-22.5 14q-15 15 -16 22.5t6.5 9t20.5 3.5t19 5q20 10 25 31q5 19 -19 20q-17 1 -30.5 -5.5t-28.5 -0.5q-13 4 -24.5 -5t-21 -18.5
t-16.5 -6.5q-23 8 -69 53q-66 -53 -102 -138q3 -33 14 -60t21 -38l10 -11q1 -2 3 -5.5t11.5 -14.5t23.5 -23t41.5 -28.5t61.5 -33.5l8 3q5 5 -13 23q-12 12 -19.5 21.5t-14 20.5t-4 20t14.5 15q24 13 34.5 10.5t16.5 -27.5t22 -15q15 9 16 34zM894 420q0 7 -2 11q0 11 -5 23
q0 3 -1 7t-1 6q-1 4 -3 11.5t-3 12.5q0 2 -1 5t-1 5q-2 5 -5.5 15t-5.5 15q-3 7 -6 13q-1 3 -4.5 8.5t-4.5 8.5q-1 2 -4 7.5t-4 7.5q-5 9 -9 13q-2 2 -5 7.5t-6 7.5q-1 1 -3 4t-3 4q-25 33 -51 56q-1 0 -2 1t-2 1q-5 4 -22 17h-2q-46 36 -100 55q-2 -3 -8 -12.5t-9 -14
t-8 -11t-9 -9.5q-10 -5 -12 -17.5t6 -23t25 -8.5q-11 -10 0 -49q8 -29 24.5 -35t56.5 10q18 7 29 2t9 -21q-2 -15 -8.5 -29.5t-11.5 -23t-4.5 -27.5t9.5 -46q10 -27 40 -57.5t37 -47.5q4 -10 18 -21t22 -15.5t31 -16.5q1 6 4 16.5t4 13.5q0 2 1 6t1 6l3 13q1 7 2 11
q0 6 2 11q0 5 1 16.5t1 17.5q3 23 0 40zM749 294q-11 -6 -11.5 -19t9.5 -21q5 -5 11 -8.5t13.5 -5.5t13.5 1.5t9 12.5q6 18 -13.5 32.5t-31.5 7.5zM512 853q-96 0 -183 -37t-149.5 -99.5t-99.5 -149.5t-37 -183t37 -183t99.5 -149.5t149.5 -99.5t183 -37t183 37t149.5 99.5
t99.5 149.5t37 183t-37 183t-99.5 149.5t-149.5 99.5t-183 37zM512 -43q-115 0 -213.5 57.5t-156 156t-57.5 213.5t57.5 213.5t156 156t213.5 57.5t213.5 -57.5t156 -156t57.5 -213.5t-57.5 -213.5t-156 -156t-213.5 -57.5z" />
    <glyph glyph-name="uniE615" unicode="&#xe615;" 
d="M408 538l-80 79l24 25l80 -80zM443 573l-20 20l35 36l20 -20zM428 658l20 -20l-35 -35l-20 20zM489 620l-80 79l24 24l80 -79zM14 894q-5 0 -8.5 -3.5t-3.5 -8.5v-1010l1022 1022h-1010zM159 436l32 32l-22 22l-27 -28l-11 11l27 27l-23 23l12 12l23 -23l27 28l11 -11
l-28 -27l23 -22l31 31l10 -11l-74 -75zM247 352l-15 9l30 36l-25 25l-27 -28l-11 11l27 27l-18 19l12 12l18 -19l29 29l10 -11l-28 -28l24 -24q16 20 31 39q4 -5 11 -12q-35 -43 -68 -85zM245 509l5 15q28 -8 55 -19l-6 -17q-26 12 -54 21zM359 456q-5 -6 -21 -20
q-6 5 -16 11q15 12 23 20q11 11 -2 23l-76 76l-42 -42l-11 11l41 43l-33 33l12 12l33 -33l18 17l11 -11l-17 -18l79 -78q22 -23 1 -44zM523 634l-105 -106l8 -8l-11 -12l-109 108l48 48q-7 16 -13 27l-63 -64l-11 12l145 145l11 -11l-69 -69q5 -11 12 -28l69 69l108 -108
l-12 -11zM398 688l20 -20l-35 -35l-20 20z" />
    <glyph glyph-name="uniE616" unicode="&#xe616;" 
d="M875 73q-30 77 -84 137q-55 61 -127 94q-13 6 -27 11q31 18 56 43q77 77 77 185t-76.5 184.5t-184.5 76.5t-184.5 -76.5t-76.5 -184.5t76 -185q26 -25 57 -43q-14 -5 -28 -11q-71 -33 -126 -94q-59 -64 -84 -137q-5 -13 -8 -25.5t-4 -26t-1.5 -21.5t-1 -20t-0.5 -14h62
q-1 54 23 109t65.5 100t102.5 73.5t128 28.5t128.5 -29.5t103.5 -74.5t67.5 -100t25.5 -107h62q0 3 -1 7q0 21 -1 31t-5.5 27.5t-13.5 41.5zM309 542.5q0 82.5 58.5 141t141 58.5t141 -58.5t58.5 -141t-58.5 -141t-141 -58.5t-141 58.5t-58.5 141z" />
    <glyph glyph-name="uniE617" unicode="&#xe617;" 
d="M857 510q-1 -66 -40 -145q-42 -87 -126 -189q-68 -82 -146 -155q-26 -25 -53 -1q-161 144 -248 292q-16 28 -28 56q-6 14 -1.5 27t17 19t26 1t19.5 -18q48 -105 159 -228q35 -38 76 -76q6 -5 10 -1q157 158 228 290q31 56 37 101q11 81 -30 155q-77 142 -231 148
q-89 3 -162 -49t-101 -138q-15 -43 -15 -88q-1 -16 -10.5 -26.5t-24 -10.5t-24 10.5t-9.5 26.5q0 120 75 214t192 121q96 22 191 -14.5t153 -119.5q64 -89 66 -202zM137 -26h762q0 3 -5 11q-49 85 -100 174q-11 19 1 37q11 16 30 15q18 -1 27 -17q96 -167 136 -237
q10 -18 -0.5 -34t-32.5 -16q-71 -1 -455 -1h-415q-24 0 -35 17.5t2 39.5q12 21 130 228q15 26 40 19q17 -4 23 -19.5t-3 -31.5q-1 -3 -70 -123q-2 -3 -35 -62zM654 516q0 -56 -40 -96t-96 -40t-95.5 40t-39.5 96t40 95.5t96 39.5t95.5 -40t39.5 -95zM519 583
q-28 0 -48 -19.5t-20 -47.5q0 -29 20 -48.5t49 -19.5q27 0 46.5 20t19.5 48t-20 47.5t-47 19.5z" />
    <glyph glyph-name="uniE618" unicode="&#xe618;" 
d="M226 771q81 81 189.5 109.5t216.5 0t189 -109.5q80 -80 99.5 -190t-18 -217t-119.5 -190l-259 -298l-260 298q-82 83 -119.5 190t-18 217t99.5 190zM524 -16l205 244q67 68 99.5 155.5t18 177.5t-79.5 155q-66 67 -154.5 90.5t-177.5 0t-155 -90.5q-65 -65 -79.5 -155
t18 -177.5t99.5 -155.5zM523.5 703q-79.5 0 -135.5 -56.5t-56 -136t56 -135.5t135.5 -56t135.5 56t56 135.5t-56 136t-135.5 56.5zM523.5 396q-47.5 0 -81 33.5t-33.5 81t33.5 81.5t81 34t81 -34t33.5 -81.5t-33.5 -81t-81 -33.5z" />
    <glyph glyph-name="uniE619" unicode="&#xe619;" 
d="M512 -126q-69 0 -131 9.5t-113.5 28t-81.5 49t-30 69.5q0 40 36 72.5t88 51t112 24.5l6 1l-157 252q-8 14 -14 29l-4 8l-1 4q-21 54 -21 111q0 129 91 220t220 91t220 -91t91 -220q0 -57 -21 -111l-2 -6l-1 -3q-7 -16 -15 -31l-272 -451l-64 105h-3q-71 -6 -121.5 -22.5
t-66.5 -30.5l-3 -3l3 -3q21 -20 88 -37.5t161 -18.5h12q94 1 161 18.5t88 37.5l3 3l-3 2q-12 11 -47 24.5t-83 22.5l54 88q86 -20 131.5 -55t45.5 -82q0 -39 -30 -69.5t-81.5 -49t-113.5 -28t-131 -9.5zM512 751q-55 0 -94 -39t-39 -94t39 -93.5t94 -38.5t94 38.5t39 93.5
t-39 94t-94 39zM512 751z" />
    <glyph glyph-name="uniE61A" unicode="&#xe61a;" 
d="M426 644h203q9 0 15 6t6 14.5t-6 14.5t-15 6h-203q-9 0 -15 -6t-6 -14.5t6 -14.5t15 -6zM527.5 481q-50.5 0 -86.5 -36t-36 -86.5t36 -86.5t86.5 -36t86.5 36t36 86.5t-36 86.5t-86.5 36zM527.5 277q-33.5 0 -57.5 24t-24 58t24 57.5t57.5 23.5t57.5 -23.5t24 -57.5
t-24 -58t-57.5 -24zM527.5 563q-84.5 0 -144 -60t-59.5 -144.5t59.5 -144t144 -59.5t144 59.5t59.5 144t-59.5 144.5t-144 60zM527.5 196q-67.5 0 -115.5 47.5t-48 115t48 115.5t115.5 48t115.5 -48t48 -115.5t-48 -115t-115.5 -47.5zM894 685h-81q-17 0 -30.5 8.5
t-23.5 20.5t-21 24t-28 20t-40 8h-142h-143q-23 0 -40 -8t-28 -20t-21 -24t-23.5 -20.5t-30.5 -8.5h-81q-34 0 -58 -24t-24 -58v-489q0 -34 24 -57.5t58 -23.5h733q34 0 58 23.5t24 57.5v489q0 34 -24 58t-58 24zM935 277h-177q-8 -21 -19 -41h196v-122q0 -17 -12 -29
t-29 -12h-733q-17 0 -29 12t-12 29v122h196q-11 20 -19 41h-177v326q0 17 12 29t29 12h81q23 0 40 8.5t28 20.5t21 24t23.5 20.5t30.5 8.5h143h142q17 0 30.5 -8.5t23.5 -20.5t21 -24t28 -20.5t40 -8.5h81q17 0 29 -12t12 -29v-326zM833.5 440q-8.5 0 -14.5 -6t-6 -14.5
t6 -14t14.5 -5.5t14.5 5.5t6 14t-6 14.5t-14.5 6zM833.5 603q-25.5 0 -43.5 -18t-18 -43t18 -43t43.5 -18t43 18t17.5 43t-17.5 43t-43 18zM833 522q-8 0 -14 6t-6 14.5t6 14.5t14.5 6t14.5 -6t6 -14.5t-6 -14.5t-15 -6z" />
    <glyph glyph-name="uniE61B" unicode="&#xe61b;" 
d="M512 294q-122 0 -208 86.5t-86 208.5t86.5 210t207.5 88q122 0 208 -86t86 -208t-86.5 -210.5t-207.5 -88.5zM512 802q-86 0 -147.5 -61.5t-61.5 -147.5t61.5 -147.5t147.5 -61.5t147.5 61.5t61.5 147.5t-61.5 147.5t-147.5 61.5zM124 -115q-17 0 -30 12t-13 30v18
q0 88 34.5 168.5t93 138.5t139 93t168.5 35q19 0 31 -12t12 -31t-12 -31t-31 -12q-94 0 -174.5 -47t-128 -127.5t-47.5 -174.5v-13q0 -19 -13 -33t-29 -14zM900 -111q-19 0 -30.5 12t-11.5 31v13q0 94 -47.5 174.5t-128 127.5t-174.5 47q-19 0 -31 12t-12 31t12 31t31 12
q88 0 168.5 -35t139 -93t93 -138.5t34.5 -168.5v-13q0 -19 -12 -31t-31 -12z" />
    <glyph glyph-name="uniE61C" unicode="&#xe61c;" 
d="M516 -73q-98 0 -180.5 16t-130.5 42.5t-48 58.5q0 38 68 68t176 42l4 -43q-66 -10 -109 -28t-43 -39q0 -31 82 -53.5t181.5 -22.5t181 22.5t81.5 53.5q0 21 -44 39.5t-111 27.5l4 43q109 -12 178 -42t69 -68q0 -32 -48 -58.5t-130.5 -42.5t-180.5 -16zM499 15v201h48
v-201h-48zM344 386h312l122 -77l-123 -78h-311v155zM185 495l122 77h472v-155h-471zM499 664h48v-75h-48v75z" />
    <glyph glyph-name="uniE61D" unicode="&#xe61d;" 
d="M834 616l-316 -316l251 -252l65 -64l-164 -164l-64 64l-416 416l480 480z" />
    <glyph glyph-name="uniE61E" unicode="&#xe61e;" 
d="M190 -16l317 316l-252 252l-65 64l164 164l64 -64l416 -416l-480 -480z" />
    <glyph glyph-name="uniE61F" unicode="&#xe61f;" 
d="M512 812q-104 0 -199 -40.5t-163.5 -109t-109 -163.5t-40.5 -199t40.5 -199t109 -163.5t163.5 -109t199 -40.5t199 40.5t163.5 109t109 163.5t40.5 199t-40.5 199t-109 163.5t-163.5 109t-199 40.5zM512 -169q-95 0 -182 37t-150 100t-100 150t-37 182t37 182t100 150
t150 100t182 37t182 -37t150 -100t100 -150t37 -182t-37 -182t-100 -150t-150 -100t-182 -37zM590 267q45 21 72.5 63.5t27.5 93.5q0 72 -52 123t-126 51t-126 -51t-52 -123q0 -51 27.5 -93.5t72.5 -63.5q-83 -25 -136 -94t-53 -157q0 -6 4.5 -10t10.5 -4t10.5 4t4.5 10
q0 97 69.5 165t167.5 68t167.5 -68t69.5 -165q0 -6 4.5 -10t10.5 -4t10.5 4t4.5 10q0 88 -53 157t-136 94zM512 278h-5q-60 2 -101.5 44.5t-41.5 101.5q0 60 43.5 103t104.5 43t104.5 -43t43.5 -103q0 -59 -41.5 -101.5t-101.5 -44.5h-5z" />
    <glyph glyph-name="uniE620" unicode="&#xe620;" 
d="M940 -21l-224 224q66 102 53.5 227.5t-101.5 214.5q-68 67 -159 91.5t-182.5 0t-159.5 -91.5q-50 -51 -76.5 -117.5t-26.5 -133.5t26.5 -133t76.5 -117q89 -89 214.5 -101.5t227.5 53.5l225 -224q19 -20 47 -20t47 20l12 12q20 19 20 47t-20 48zM244.5 221.5
q-71.5 71.5 -71.5 173t71.5 173t173 71.5t173 -71.5t71.5 -173t-71.5 -173t-173 -71.5t-173 71.5z" />
    <glyph glyph-name="uniE621" unicode="&#xe621;" 
d="M886 701q-1 41 -107 69.5t-256 28.5t-256.5 -29t-106.5 -70v-615q0 -33 24 -56.5t57 -23.5h47l-100 -227h670l-124 227h72q33 0 56.5 23.5t23.5 56.5v572v44v0zM513.5 743q17.5 0 29.5 -12.5t12 -30t-12 -30t-29.5 -12.5t-29.5 12.5t-12 30t12 30t29.5 12.5zM244 175.5
q0 23.5 16.5 40t39.5 16.5t39.5 -16.5t16.5 -40t-16.5 -40.5t-39.5 -17t-39.5 17t-16.5 40.5zM675 5l25 -57h-372l19 57h328zM750 -165h-459l18 56h416zM747 118q-23 0 -39.5 17t-16.5 40.5t16.5 40t39.5 16.5t39.5 -16.5t16.5 -40t-16.5 -40.5t-39.5 -17zM803 347
q0 -13 -9 -21.5t-21 -8.5h-499q-12 0 -21 8.5t-9 21.5v253q0 12 9 20.5t21 8.5h499q12 0 21 -8.5t9 -20.5v-253z" />
    <glyph glyph-name="uniE622" unicode="&#xe622;" 
d="M932.5 -121.5q-24.5 -24.5 -59.5 -24.5t-59 24l-147 149q-97 -63 -210 -63q-106 0 -196 52.5t-142 143t-52 197t52 197t142 143t196 52.5t195.5 -52.5t142 -143t52.5 -196.5q0 -114 -62 -211l147 -149q25 -24 25 -59t-24.5 -59.5zM456.5 637q-115.5 0 -197 -82
t-81.5 -198t81.5 -198.5t197 -82.5t197 82.5t81.5 198.5t-81.5 198t-197 82z" />
    <glyph glyph-name="uniE623" unicode="&#xe623;" 
d="M1020 -124l-271 269q82 110 82 248q0 112 -55.5 207t-151 150.5t-207.5 55.5t-207.5 -55.5t-150.5 -150.5t-55 -207.5t55 -207.5t150.5 -150.5t207.5 -55.5q138 0 248 83l271 -268zM73 393q0 93 46 172.5t125.5 125.5t173 46t172.5 -46t125 -125.5t46 -173t-46 -173
t-125 -125.5t-172.5 -46t-173 46t-125.5 125.5t-46 173.5zM73 393z" />
    <glyph glyph-name="uniE624" unicode="&#xe624;" 
d="M138 812h886q-11 -1 -29.5 -2.5t-76.5 -10.5t-114.5 -21.5t-134 -36t-146 -52.5t-140 -74t-124.5 -98q-52 -52 -94 -120.5t-68 -134.5t-45.5 -138.5t-29 -127.5t-15 -108t-6.5 -73t-1 -27v887q0 53 42.5 95t95.5 42z" />
    <glyph glyph-name="uniE625" unicode="&#xe625;" 
d="M723 410l130 133l-130 149h-228v28q0 11 -9.5 19.5t-23 8.5t-23 -8.5t-9.5 -19.5v-28h-261v-282h261v-373h-98q-14 0 -23.5 -8.5t-9.5 -19.5v-57h326v57q0 11 -9.5 19.5t-22.5 8.5h-98v373h228z" />
    <glyph glyph-name="uniE626" unicode="&#xe626;" 
d="M673 530h190l94 99l-94 99h-190h-159v72h-101v-193h-168h-58l-3 -2h-3l-115 -100l115 -99h59h173v-432h101v313h93h58l114 100l-114 99h-58h-93v44h159z" />
    <glyph glyph-name="uniE627" unicode="&#xe627;" 
d="M606 594q7 7 15 0q7 -7 0 -14l-203 -203q-7 -7 -15 0q-7 7 0 14zM418 391q-7 7 -15 0q-7 -7 0 -14l203 -203q7 -7 15 0q7 7 0 14z" />
    <glyph glyph-name="uniE628" unicode="&#xe628;" horiz-adv-x="1056" 
d="M380 707q-27 -11 -52 -27q-25 -18 -44 -37v0q-20 -20 -37 -45q-16 -24 -28 -52q-4 -10 0 -19.5t14 -13.5t19.5 0t13.5 13q10 23 24 43q15 22 30 37q17 17 37.5 31t42.5 23q10 4 14 14t0 20q-4 9 -14 13t-20 0zM1042 -54l-186 184q46 55 73 120q35 85 35 179q0 92 -34 176
l-1 2q-34 84 -99 150l-3 2q-65 66 -151 101v0q-85 36 -179 36t-179.5 -36t-150.5 -101q-66 -66 -101 -152q-35 -85 -35 -178q0 -91 34 -176l1 -3q35 -85 101 -151t152 -101q85 -36 178.5 -36t178.5 36q64 26 120 72l185 -185q13 -13 30.5 -13t30.5 13q12 13 12 30.5
t-12 30.5zM767 160v-1q-55 -54 -124 -82q-69 -29 -146 -29q-76 0 -145 29q-69 27 -124 82v0q-54 54 -83 124l-1 2q-28 69 -28 144q0 77 29 146q29 70 83 124q53 52 122.5 81.5t146.5 29.5t146 -29q70 -28 124 -82l3 -2q52 -55 80 -122l1 -2q28 -71 28 -144q0 -76 -29 -146
q-28 -70 -83 -123zM774 455q-11 0 -18.5 -7.5t-7.5 -18.5q0 -51 -18 -96l-1 -1q-21 -48 -54 -80q-35 -36 -82 -55q-44 -19 -96 -19q-10 0 -17.5 -7.5t-7.5 -18t7.5 -18t17.5 -7.5q60 0 116 23t98 66q42 41 65 96v1q24 56 24 116q0 11 -7.5 18.5t-18.5 7.5z" />
    <glyph glyph-name="uniE629" unicode="&#xe629;" 
d="M886 -128h-886q11 1 29.5 2.5t76.5 10.5t114.5 21.5t134 36t146 52.5t140 74t124.5 98q52 52 94 120.5t68 134.5t45.5 138.5t29 127.5t15 108t6.5 73t1 27v-887q0 -53 -42.5 -95t-95.5 -42z" />
    <glyph glyph-name="uniE62A" unicode="&#xe62a;" 
d="M896 486q0 147 -95 219t-288.5 72t-288.5 -72t-95 -219q0 -46 20.5 -98t51 -96.5t72.5 -91.5t77 -80.5t74 -65.5t55 -44t26 -20h1q4 -2 6.5 -2t6.5 2h1q10 8 26 20t54.5 44t74 65.5t77.5 80.5t72.5 91.5t51 96.5t20.5 98zM622 486q0 -78 -23 -177.5t-43.5 -158.5
t-43.5 -112q-22 53 -43 112t-43.5 158.5t-22.5 177.5q0 67 7 116.5t17.5 76.5t26 42.5t29 20t30 4.5t29.5 -4.5t29 -20t26.5 -42.5t17.5 -76.5t7 -116.5zM375 486q0 -174 92 -409q-34 40 -64.5 82.5t-63.5 98.5t-53 116t-20 112q0 109 40 171t124 81q-55 -67 -55 -252z
M649 486q0 185 -54 252q83 -19 123.5 -81t40.5 -171q0 -52 -20 -112t-53.5 -116t-63.5 -98.5t-64 -82.5q91 235 91 409zM156 486q0 183 169 236q-87 -70 -87 -236q0 -158 160 -370q-45 40 -83 81t-76.5 90.5t-60.5 101.5t-22 97zM626 116q160 212 160 370q0 166 -86 236
q168 -53 168 -236q0 -45 -22 -97t-60 -101.5t-76.5 -90.5t-83.5 -81zM444 -41q-6 0 -10 -4t-4 -10v-84q0 -17 12 -29.5t29 -12.5h84q18 0 30 12.5t12 29.5v84q0 6 -4 10t-10 4h-139zM569 -139q0 -14 -14 -14h-84q-14 0 -14 14v70h112v-70z" />
    <glyph glyph-name="uniE62B" unicode="&#xe62b;" 
d="M946.5 516q-7.5 10 -19.5 12l-81 12l-15 80q-2 12 -12.5 19.5t-23.5 4.5l-297 -54l-231 33q-12 2 -22 -5.5t-12 -20.5l-9 -58l-128 -23q-12 -3 -19.5 -13t-4.5 -23l92 -500q2 -12 12 -20q8 -5 18 -5q2 0 5 1l409 75l242 -35h4q12 0 20.5 7t10.5 19l8 61l6 1q12 3 19 13
t5 23l-14 74l44 299q1 13 -6.5 23zM875 381l-27 -188l-9 -58l-9 -63l-1 -11l-34 4l-188 28l-378 54l49 340l10 64l1 7l22 -3l188 -27l295 -42l63 -10l31 -4zM776 579l6 -30l-95 14zM137 461l78 15l-35 -246zM218 21l-12 68l213 -31zM415 344.5q24 -3.5 43.5 11t23 38.5
t-11 43.5t-38.5 23t-43.5 -11t-23 -38.5t11 -43.5t38.5 -23zM758 304l-56 -58l-70 138l-133 -152q-4 1 -10 3.5t-25.5 7t-37.5 7t-42 1.5t-43 -7.5t-37 -22.5t-28 -41l451 -65l67 -10l-4 21z" />
    <glyph glyph-name="uniE62C" unicode="&#xe62c;" 
d="M912 751h-804q-19 0 -32.5 -13.5t-13.5 -32.5v-803q0 -20 13.5 -33.5t32.5 -13.5h804q19 0 32.5 13.5t13.5 33.5v803q0 19 -13.5 32.5t-32.5 13.5zM242 -37h-91v92h91v-92zM242 113h-91v92h91v-92zM242 263h-91v91h91v-91zM242 412h-91v92h91v-92zM242 562h-91v91h91v-91
zM691 -37h-362v300h362v-300zM691 354h-362v299h362v-299zM870 -37h-91v92h91v-92zM870 113h-91v92h91v-92zM870 263h-91v91h91v-91zM870 412h-91v92h91v-92zM870 562h-91v91h91v-91z" />
    <glyph glyph-name="uniE62D" unicode="&#xe62d;" 
d="M971 706q0 17 -11 28t-28 11h-841q-16 0 -27 -11t-11 -28v-654q0 -16 16.5 -32.5t32.5 -16.5h820q16 0 32.5 16.5t16.5 32.5v654zM897 77h-770v594h770v-594zM301 -145h471v74h-471v-74zM376 523v-322l322 161z" />
    <glyph glyph-name="uniE62E" unicode="&#xe62e;" 
d="M714 763h-555q-33 0 -56 -23.5t-23 -55.5v-735q0 -33 23 -56t56 -23h735q33 0 56 23t23 56v555zM928 485v-2h-176q-24 0 -40.5 16.5t-16.5 39.5v178zM894 -85h-735q-14 0 -24 10t-10 24v735q0 14 10 24t24 10h491v-179q0 -41 30 -71t72 -30h176v-489q0 -14 -10 -24
t-24 -10zM665 352l-189 110q-18 10 -36 10q-21 0 -36.5 -15.5t-15.5 -45.5v-219q0 -30 15.5 -45.5t36.5 -15.5q18 0 36 10l189 110q34 19 34 50.5t-34 50.5zM646 283l-189 -109q-10 -5 -17 -5q-14 0 -14 23v219q0 23 14 23q7 0 17 -5l189 -110q16 -8 16 -17.5t-16 -18.5z
M160 664h75v-74h-75v74zM160 513h75v-75h-75v75zM160 361h75v-74h-75v74zM160 210h75v-74h-75v74zM160 59h75v-75h-75v75zM802 361h74v-74h-74v74zM802 210h74v-74h-74v74zM802 59h74v-75h-74v75z" />
    <glyph glyph-name="uniE62F" unicode="&#xe62f;" 
d="M928 -64h-832q-40 0 -68 28t-28 68v704q0 40 28 68t68 28h832q40 0 68 -28t28 -68v-704q0 -40 -28 -68t-68 -28zM96 768q-13 0 -22.5 -9.5t-9.5 -22.5v-704q0 -13 9.5 -22.5t22.5 -9.5h832q13 0 22.5 9.5t9.5 22.5v704q0 13 -9.5 22.5t-22.5 9.5h-832zM64 576h896v-64
h-896v64zM192 768h64v-192h-64v192zM384 768h64v-192h-64v192zM576 768h64v-192h-64v192zM768 768h64v-192h-64v192zM438 377q-54 27 -54 -43v-154q0 -69 54 -42l163 85q29 14 30.5 34t-26.5 35z" />
    <glyph glyph-name="uniE630" unicode="&#xe630;" 
d="M862 -16h-703q-40 0 -68.5 28t-28.5 68v606q0 40 28.5 68.5t68.5 28.5h703q40 0 68.5 -28.5t28.5 -68.5v-606q0 -40 -28.5 -68t-68.5 -28zM886 662q0 20 -14 34t-35 14h-653q-21 0 -35 -14t-14 -34v-557q0 -20 14 -34.5t35 -14.5h653q21 0 35 14.5t14 34.5v557zM650 352
l-185 -117q-20 -13 -41.5 -2.5t-21.5 33.5v235q0 22 21.5 32.5t41.5 -1.5l185 -118q18 -11 18 -31t-18 -31zM650 352z" />
    <glyph glyph-name="uniE631" unicode="&#xe631;" horiz-adv-x="1244" 
d="M769 417q45 35 70.5 86.5t25.5 110.5q0 103 -73.5 176.5t-176.5 73.5t-176.5 -73.5t-73.5 -176.5q0 -59 26 -110.5t70 -86.5q-117 -47 -189.5 -152.5t-72.5 -235.5v-83q0 -18 12 -30t29 -12h750q17 0 29 12t12 30v83q0 130 -72.5 235.5t-189.5 152.5v0zM434 614
q0 75 53 128t128 53t128 -53t53 -128t-53 -128t-128 -53t-128 53t-53 128v0zM969 -27h-708v44q0 96 47.5 177.5t129 129t177.5 47.5t177.5 -47.5t129 -129t47.5 -177.5v-44zM293 378l8 2q13 4 21.5 15t8.5 24q0 28 -29 39q-33 15 -53 46t-20 68q0 40 29 73t69 46
q13 40 39 74q4 7 9 14q-1 1 -5 1h-5q-86 0 -147 -61t-61 -147q0 -80 54 -140q-82 -43 -130.5 -122.5t-48.5 -173.5v-65q0 -17 12.5 -29.5t29.5 -12.5h75q0 33 8 74h-53v33q0 86 52.5 153.5t136.5 88.5v0zM1018 432q55 60 55 140q0 86 -61 147t-148 61h-4q-4 0 -6 -1l10 -14
q26 -34 39 -74q41 -14 73 -47t32 -72q0 -37 -20 -68t-54 -46q-28 -11 -28 -39q0 -13 8.5 -24t21.5 -15l8 -2q84 -21 136.5 -88.5t52.5 -153.5v-33h-60q8 -41 8 -74h75q17 0 29 12.5t12 29.5v65q0 94 -48.5 173.5t-130.5 122.5v0z" />
    <glyph glyph-name="uniE632" unicode="&#xe632;" 
d="M933 771q-1 -12 -1 -13v-66q0 -44 -1 -63v-79q0 -51 -1 -67v-117q0 -22 -14 -37q-17 -21 -45 -34q-35 -17 -87 -22q-10 -3 -25 -0.5t-18.5 3t-18 6t-23.5 8.5q-41 13 -69 17q-38 4 -66 2q-38 -3 -45 -4q-70 -12 -110 -54q-5 -6 -13 -18q-8 -11 -17 -16q-4 -2 -2 -7
q14 -36 102 -254q4 -11 1 -18q-5 -14 -18 -14q-16 -1 -22 13q-2 6 -20 52q-89 221 -97 240q-27 67 -88.5 220t-94.5 235q-5 11 -29 73q-3 9 0.5 17.5t11.5 11.5t16 -0.5t12 -11.5q1 -3 12 -31q12 4 32 2q5 0 10 4q60 42 111 62q46 19 90 25q87 11 165 -24q36 -17 72 -30
q29 -10 65 -11q39 -1 55 0q14 1 21 4.5t16 12t19 13.5q22 13 41 31t43 10q24 -9 29 -34q0 -1 1 -4v-33zM359 256q10 15 11 16q36 43 96 64q42 15 97 16q42 2 73 -3q31 -4 70 -16q55 -17 87 -17q12 0 16 0.5t11 4t15 6.5q32 10 48 29q3 4 3 9q1 9 1 31q1 96 1 144t1 256v2v2
q-30 -24 -32 -26q-8 -5 -21 -14.5t-18.5 -13t-15.5 -9t-20.5 -7.5t-24.5 -2q-17 -1 -58 0q-27 1 -61 10q-29 8 -79 32q-74 34 -154 22q-50 -8 -101 -34q-31 -15 -88 -54q-2 -2 -7 -2h-29q136 -339 179 -446z" />
    <glyph glyph-name="uniE633" unicode="&#xe633;" 
d="M630 409q34 27 54 66t20 84q0 79 -56.5 135t-135.5 56t-135.5 -56t-56.5 -135q0 -45 19.5 -84t54.5 -66q-90 -35 -146 -115t-56 -179v-64q0 -13 9.5 -22t22.5 -9h575q14 0 23 9t9 22v64q0 99 -55.5 179t-145.5 115v0zM373 559q0 57 40.5 97.5t98 40.5t98.5 -40.5
t41 -97.5t-41 -97t-98.5 -40t-98 40t-40.5 97v0zM783 72h-543v33q0 112 80 191t192 79t191.5 -79t79.5 -191v-33v0zM264 380l6 2q23 7 23 29t-21 30q-26 11 -41 34.5t-15 51.5q0 31 22 56t53 35q10 31 30 56q3 6 7 11q-1 0 -3.5 0.5t-4.5 0.5q-66 0 -113 -46.5t-47 -112.5
q0 -61 42 -106q-63 -32 -100.5 -92.5t-37.5 -132.5v-49q0 -14 9.5 -23t22.5 -9h58q0 25 6 56h-40v25q0 65 40 116.5t104 67.5v0zM821 421q42 45 42 106q0 66 -47 112.5t-113 46.5q-1 0 -3.5 -0.5t-3.5 -0.5q3 -5 7 -11q20 -25 30 -56q31 -10 55.5 -35.5t24.5 -55.5
q0 -28 -15.5 -51.5t-40.5 -34.5q-22 -8 -22 -30t23 -29l6 -2q64 -16 104.5 -67.5t40.5 -116.5v-25h-46q7 -31 7 -56h57q13 0 22.5 9t9.5 23v49q0 72 -37.5 132.5t-100.5 92.5v0zM821 421z" />
    <glyph glyph-name="uniE634" unicode="&#xe634;" 
d="M769 246q-2 3 -6.5 11.5t-8 14t-12 16.5t-23 25t-35.5 33q1 67 -17 133.5t-40 111t-51 86.5t-42 56.5t-22 23.5v1h-1v-1q-9 -9 -22 -24t-42 -57t-50.5 -86.5t-39 -111t-17.5 -133.5q-20 -19 -34.5 -33t-22.5 -25l-12 -17q-4 -5 -9 -14l-5 -11q-16 -30 -14 -115.5
t18 -112.5q22 -38 67 0q3 3 20.5 22.5t33.5 34.5t21 14q16 3 34 -14q13 -12 34.5 -22t41.5 -11v0h1q19 1 40.5 11t35.5 23q7 7 15.5 10.5t12.5 3.5h5q5 1 21 -14.5t33.5 -35t21.5 -21.5q45 -37 66 0q16 27 18 112.5t-14 115.5zM512 337q-33 0 -57.5 24t-24.5 57.5t24 57.5
t58 24.5t58 -23.5t24 -58t-24 -58t-58 -24zM573 8q-28 -20 -60 -20q-33 -1 -61 20q-28 20 -44 0q-6 -8 -4 -46.5t10 -49.5q7 -6 11 -4t13.5 8t16.5 6q22 2 41 -57q7 -20 17 -21q10 1 17 21q19 59 40 58q8 -1 17.5 -7t13.5 -8t11 4q8 11 10 49.5t-5 47.5q-16 20 -44 -1z" />
    <glyph glyph-name="uniE635" unicode="&#xe635;" 
d="M896 684h-768q-53 0 -90.5 -37.5t-37.5 -90.5v-512q0 -53 37.5 -90.5t90.5 -37.5h768q53 0 90.5 37.5t37.5 90.5v512q0 53 -37.5 90.5t-90.5 37.5zM928 620l-416 -320l-416 320h832zM64 44v512l288 -224l-285 -306q-3 9 -3 18zM114 -18l289 307l109 -82l105 83l293 -308
q-3 -1 -398 -1t-398 1zM960 44q0 -9 -3 -18l-285 306l288 224v-512z" />
    <glyph glyph-name="uniE636" unicode="&#xe636;" 
d="M720 -140q0 3 0.5 7.5t-1 18.5t-5.5 28.5t-15 35.5t-28 42q25 73 41.5 154.5t20 117t3.5 44.5q5 -1 12.5 -4t28 -14t35.5 -26t27.5 -42.5t12.5 -61.5q0 -163 -102 -272q-17 -18 -30 -28zM399 -68q-9 30 -22 76t-35 145.5t-22 147.5q0 67 14 131h356q13 -64 13 -131
q0 -104 -77 -367l-1 -2h-226zM512 373q-30 0 -51.5 -22t-21.5 -53.5t21.5 -53.5t51.5 -22t51 22t21 53.5t-21 53.5t-51 22zM496 709v103h28v-100q17 -12 34.5 -29.5t42 -48t47 -76t35.5 -98.5h-343q14 51 35 95.5t45 75t41.5 48t34.5 30.5zM304 -140q-5 4 -14 12t-32 35.5
t-40.5 59t-31.5 84t-14 109.5q0 25 6 46t16.5 36t23 26.5t25 19t22.5 12t17 6.5l6 2q1 -17 4 -46.5t19.5 -113t41.5 -156.5q-26 -32 -38.5 -65t-11.5 -50zM560 -155l-24 25l-25 -82l-30 82l-21 -43l-30 77h163z" />
    <glyph glyph-name="uniE637" unicode="&#xe637;" 
d="M512 -212q139 0 257 68.5t186.5 186.5t68.5 257t-68.5 257t-186.5 186.5t-257 68.5t-257 -68.5t-186.5 -186.5t-68.5 -257t68.5 -257t186.5 -186.5t257 -68.5zM585 227v-194h-146v194h-194v146h194v194h146v-194h194v-146h-194z" />
    <glyph glyph-name="uniE638" unicode="&#xe638;" 
d="M521.5 771q-98.5 0 -188.5 -38t-154.5 -103t-103 -155t-38.5 -188.5t38.5 -188.5t103 -155t154.5 -103t188.5 -38t188.5 38t155 103t103.5 155t38.5 188.5t-38.5 188.5t-103.5 155t-155 103t-188.5 38zM833 230h-257v-245h-109v245h-236v109h236v249h109v-249h257v-109z
" />
    <glyph glyph-name="uniE639" unicode="&#xe639;" 
d="M513 412q-23 0 -39.5 -16t-16.5 -39t16.5 -39.5t39.5 -16.5t39.5 16.5t16.5 39.5t-16.5 39t-39.5 16zM290 412q-23 0 -39.5 -16t-16.5 -39t16.5 -39.5t39.5 -16.5t39.5 16.5t16.5 39.5t-16.5 39t-39.5 16zM513 747q-121 0 -224 -52.5t-162.5 -142t-59.5 -195.5
q0 -91 44.5 -170.5t122.5 -134.5v-197l196 119q42 -7 83 -7q121 0 223.5 52t162.5 142t60 196t-60 195.5t-162.5 142t-223.5 52.5zM513 22q-46 0 -94 11l-132 -79l2 129q-77 46 -121.5 118t-44.5 156q0 91 52 168t142 121.5t196 44.5t196 -44.5t142 -121.5t52 -168t-52 -168
t-142 -122t-196 -45zM736 412q-23 0 -39.5 -16t-16.5 -39t16.5 -39.5t39.5 -16.5t39.5 16.5t16.5 39.5t-16.5 39t-39.5 16z" />
    <glyph glyph-name="uniE63A" unicode="&#xe63a;" 
d="M774 243q-2 3 -6.5 12t-8.5 14.5t-12.5 16.5t-23 25.5t-35.5 33.5q0 69 -18 137t-40.5 113.5t-52.5 88.5t-43 58l-23 25v0h-1l-22 -25q-14 -15 -43.5 -58t-52 -89t-40 -114t-17.5 -136q-21 -20 -35.5 -34.5t-23 -25.5t-12.5 -16.5t-8.5 -15t-5.5 -11.5
q-17 -31 -14.5 -118.5t18.5 -115.5q23 -38 68 0q4 3 21.5 23t34 36t22.5 14q16 3 34 -14q14 -13 36 -23t42 -11v0h1q20 1 42 11.5t35 23.5q8 7 16.5 10.5t13.5 3.5h4q6 1 22.5 -14.5t34.5 -35.5t21 -23q46 -38 68 0q16 28 18 116t-14 118v0zM512 336q-35 0 -59.5 24.5
t-25 59t24 59.5t59.5 25t59.5 -24.5t24.5 -59.5t-24.5 -59.5t-58.5 -24.5v0zM574 0q-29 -22 -62 -21q-34 -1 -62 21q-29 20 -45 -1q-7 -8 -5 -47.5t10 -50.5q8 -7 12 -4.5t14 8.5t17 7q22 1 42 -59q7 -21 17 -22q10 1 17 22q20 60 42 59q7 0 17 -6.5t14 -8.5t12 4
q8 12 9.5 51t-4.5 48q-16 21 -45 0v0zM574 0z" />
    <glyph glyph-name="uniE63B" unicode="&#xe63b;" 
d="M512 24q-44 0 -90 8l-210 -128v212q-84 59 -132 144.5t-48 183.5q0 85 38 163t102.5 134t153 89.5t186.5 33.5t186.5 -33.5t153 -89.5t102.5 -134t38 -163t-38 -163t-102.5 -134t-153 -89.5t-186.5 -33.5zM512 804q-174 0 -297 -105.5t-123 -254.5q0 -90 48 -167.5
t131 -127.5l-2 -139l142 85q51 -11 101 -11q114 0 211 48t153 131t56 181q0 149 -123 254.5t-297 105.5zM752 384q-25 0 -42.5 17.5t-17.5 42.5t17.5 42.5t42.5 17.5t42.5 -17.5t17.5 -42.5t-17.5 -42.5t-42.5 -17.5zM512 384q-25 0 -42.5 17.5t-17.5 42.5t17.5 42.5
t42.5 17.5t42.5 -17.5t17.5 -42.5t-17.5 -42.5t-42.5 -17.5zM272 384q-25 0 -42.5 17.5t-17.5 42.5t17.5 42.5t42.5 17.5t42.5 -17.5t17.5 -42.5t-17.5 -42.5t-42.5 -17.5z" />
    <glyph glyph-name="uniE63C" unicode="&#xe63c;" 
d="M451 -76q-23 47 -25 87.5t8 66t32 57.5q18 26 30.5 55.5t16.5 45.5l4 17q1 -2 3 -5t7 -14t7.5 -22.5t4.5 -29.5t-3 -35q38 42 52 103t6 97q63 -44 101 -117.5t40 -152.5t-33 -153q80 45 128 99.5t61.5 106t8.5 105.5t-25 98t-45.5 83t-46.5 62t-34 32q14 -26 11.5 -67.5
t-26.5 -62.5q-16 61 -42.5 111t-53 77.5t-51 46t-39.5 24.5l-15 6q20 -137 -138 -330q-2 40 -7.5 65t-21.5 54q-3 -44 -40.5 -119.5t-44.5 -111.5q-18 -86 20 -151t150 -128z" />
    <glyph glyph-name="uniE63D" unicode="&#xe63d;" 
d="M511 804q-114 0 -210.5 -48t-152.5 -131t-56 -180q0 -75 36 -144t103 -121l103 -79q-6 -31 -31 -94q-8 -19 7 -33q8 -8 20 -8q7 0 13 2q111 50 175 118q112 2 207 50t150 130.5t55 178.5q0 97 -56 180t-152.5 131t-210.5 48zM509 137h-3q-6 -1 -13.5 -6t-12.5 -9l-4 -5
q-55 -55 -101 -81q20 67 8 85q-2 3 -4 5h-2q0 1 -1 1q-83 44 -146 105q-43 45 -66 102t-23 113q0 83 49.5 154t135 112.5t185.5 41.5t185.5 -41.5t135 -112.5t49.5 -154.5t-50 -155t-135.5 -113t-186.5 -41.5zM689 532h-356q-13 0 -22 -9.5t-9 -22.5t9 -22t22 -9h356
q14 0 23 9t9 22t-9 22.5t-23 9.5zM689 532zM648 385h-273q-13 0 -22 -9t-9 -22t9 -22.5t22 -9.5h273q13 0 22 9.5t9 22.5t-9 22t-22 9zM648 385z" />
  </font>
</defs>
</svg>
